<svg width="181" height="66" viewBox="0 0 181 66" fill="none" xmlns="http://www.w3.org/2000/svg">
<rect width="181" height="66" rx="16" fill="white"/>
<path d="M41.2215 34.1447C41.257 31.3656 42.7347 28.7361 45.079 27.2805C43.6001 25.1473 41.123 23.7948 38.5459 23.7134C35.7971 23.422 33.1324 25.3746 31.7317 25.3746C30.3039 25.3746 28.1473 23.7423 25.825 23.7906C22.798 23.8894 19.976 25.6275 18.5033 28.3003C15.3376 33.8359 17.6989 41.9714 20.7314 46.446C22.2487 48.6371 24.0219 51.0846 26.3421 50.9978C28.6125 50.9026 29.4605 49.5355 32.2012 49.5355C34.9164 49.5355 35.7119 50.9978 38.0792 50.9426C40.5155 50.9026 42.0505 48.7418 43.5145 46.5299C44.6046 44.9687 45.4435 43.2432 46 41.4174C43.1369 40.1944 41.2249 37.2843 41.2215 34.1447Z" fill="#090909"/>
<path d="M36.7501 20.7707C38.0785 19.1601 38.7329 17.09 38.5744 15C36.545 15.2153 34.6703 16.1949 33.324 17.7437C32.0075 19.2569 31.3224 21.2906 31.4519 23.3007C33.4821 23.3218 35.4779 22.3688 36.7501 20.7707Z" fill="#090909"/>
<path d="M122.971 31.0876V34.4394H120.867V36.6375H122.971V44.1063C122.971 46.6565 124.126 47.6767 127.033 47.6767C127.544 47.6767 128.03 47.6159 128.456 47.5431V45.3693C128.091 45.4057 127.86 45.43 127.459 45.43C126.157 45.43 125.586 44.8228 125.586 43.4383V36.6375H128.456V34.4394H125.586V31.0876H122.971Z" fill="#090909"/>
<path d="M135.861 47.8588C139.728 47.8588 142.1 45.2721 142.1 40.9852C142.1 36.7226 139.716 34.1237 135.861 34.1237C131.993 34.1237 129.609 36.7226 129.609 40.9852C129.609 45.2721 131.981 47.8588 135.861 47.8588ZM135.861 45.5393C133.587 45.5393 132.309 43.8755 132.309 40.9852C132.309 38.1191 133.587 36.4432 135.861 36.4432C138.123 36.4432 139.412 38.1191 139.412 40.9852C139.412 43.8634 138.123 45.5393 135.861 45.5393Z" fill="#090909"/>
<path d="M144.129 47.6038H146.744V39.795C146.744 37.937 148.143 36.6861 150.125 36.6861C150.587 36.6861 151.366 36.7711 151.584 36.844V34.2694C151.305 34.1966 150.806 34.1601 150.417 34.1601C148.69 34.1601 147.218 35.1074 146.841 36.4068H146.647V34.3787H144.129V47.6038Z" fill="#090909"/>
<path d="M158.077 36.3461C160.011 36.3461 161.276 37.6941 161.337 39.7708H154.647C154.793 37.7062 156.143 36.3461 158.077 36.3461ZM161.324 44.0334C160.838 45.0656 159.755 45.6364 158.174 45.6364C156.082 45.6364 154.732 44.167 154.647 41.8474V41.7017H164V40.7909C164 36.6375 161.774 34.1237 158.089 34.1237C154.355 34.1237 151.984 36.8076 151.984 41.0338C151.984 45.26 154.307 47.8588 158.101 47.8588C161.13 47.8588 163.246 46.4015 163.842 44.0334H161.324Z" fill="#090909"/>
<path d="M105.823 42.72C106.025 45.9675 108.735 48.0443 112.769 48.0443C117.08 48.0443 119.778 45.8668 119.778 42.3927C119.778 39.6613 118.24 38.1508 114.508 37.2823L112.504 36.7914C110.134 36.2376 109.176 35.495 109.176 34.1985C109.176 32.5622 110.664 31.4923 112.895 31.4923C115.013 31.4923 116.475 32.537 116.74 34.2111H119.488C119.324 31.1524 116.626 29 112.933 29C108.962 29 106.315 31.1524 106.315 34.3873C106.315 37.0558 107.815 38.6417 111.105 39.4096L113.45 39.976C115.857 40.5424 116.916 41.3732 116.916 42.7577C116.916 44.3689 115.252 45.5395 112.983 45.5395C110.55 45.5395 108.861 44.4444 108.622 42.72H105.823Z" fill="#090909"/>
<path d="M78.736 34.1601C76.936 34.1601 75.3792 35.0588 74.5765 36.5647H74.382V34.3787H71.8644V52H74.4792V45.6H74.686C75.3792 46.9966 76.8752 47.8224 78.7603 47.8224C82.1049 47.8224 84.2332 45.1871 84.2332 40.9852C84.2332 36.7833 82.1049 34.1601 78.736 34.1601ZM77.9941 45.4785C75.8049 45.4785 74.4306 43.7541 74.4306 40.9973C74.4306 38.2284 75.8049 36.504 78.0063 36.504C80.2198 36.504 81.5454 38.192 81.5454 40.9852C81.5454 43.7905 80.2198 45.4785 77.9941 45.4785Z" fill="#090909"/>
<path d="M93.383 34.1601C91.583 34.1601 90.0263 35.0588 89.2236 36.5647H89.029V34.3787H86.5114V52H89.1263V45.6H89.3331C90.0263 46.9966 91.5222 47.8224 93.4074 47.8224C96.7519 47.8224 98.8803 45.1871 98.8803 40.9852C98.8803 36.7833 96.7519 34.1601 93.383 34.1601ZM92.6411 45.4785C90.452 45.4785 89.0776 43.7541 89.0776 40.9973C89.0776 38.2284 90.452 36.504 92.6533 36.504C94.8668 36.504 96.1925 38.192 96.1925 40.9852C96.1925 43.7905 94.8668 45.4785 92.6411 45.4785Z" fill="#090909"/>
<path d="M67.1729 47.6038H70.1731L63.6055 29.4405H60.5675L54 47.6038H56.8993L58.5759 42.7829H65.509L67.1729 47.6038ZM61.9416 32.7384H62.1559L64.7904 40.4165H59.2944L61.9416 32.7384Z" fill="#090909"/>
<path d="M54 16.37V23.8906H56.5954C58.7375 23.8906 59.9779 22.5094 59.9779 20.1068C59.9779 17.7407 58.7275 16.37 56.5954 16.37H54ZM55.1159 17.4332H56.4709C57.9604 17.4332 58.8421 18.4235 58.8421 20.1225C58.8421 21.8476 57.9753 22.8274 56.4709 22.8274H55.1159V17.4332Z" fill="#090909"/>
<path d="M63.7768 24C65.361 24 66.3324 22.8899 66.3324 21.0502C66.3324 19.2208 65.356 18.1055 63.7768 18.1055C62.1927 18.1055 61.2163 19.2208 61.2163 21.0502C61.2163 22.8899 62.1877 24 63.7768 24ZM63.7768 23.0046C62.8453 23.0046 62.3222 22.2906 62.3222 21.0502C62.3222 19.8202 62.8453 19.101 63.7768 19.101C64.7034 19.101 65.2315 19.8202 65.2315 21.0502C65.2315 22.2853 64.7034 23.0046 63.7768 23.0046Z" fill="#090909"/>
<path d="M74.6048 18.215H73.5338L72.5673 22.5459H72.4826L71.3668 18.215H70.3406L69.2247 22.5459H69.145L68.1736 18.215H67.0876L68.5821 23.8906H69.683L70.7989 19.7107H70.8836L72.0044 23.8906H73.1153L74.6048 18.215Z" fill="#090909"/>
<path d="M75.8382 23.8906H76.9093V20.5707C76.9093 19.6847 77.4124 19.1322 78.2045 19.1322C78.9965 19.1322 79.3751 19.5857 79.3751 20.4977V23.8906H80.4462V20.2163C80.4462 18.8664 79.7787 18.1055 78.5681 18.1055C77.7512 18.1055 77.2131 18.486 76.9491 19.1166H76.8694V18.215H75.8382V23.8906Z" fill="#090909"/>
<path d="M82.1329 23.8906H83.204V16H82.1329V23.8906Z" fill="#090909"/>
<path d="M87.2321 24C88.8162 24 89.7876 22.8899 89.7876 21.0502C89.7876 19.2208 88.8112 18.1055 87.2321 18.1055C85.6479 18.1055 84.6716 19.2208 84.6716 21.0502C84.6716 22.8899 85.643 24 87.2321 24ZM87.2321 23.0046C86.3005 23.0046 85.7775 22.2906 85.7775 21.0502C85.7775 19.8202 86.3005 19.101 87.2321 19.101C88.1587 19.101 88.6867 19.8202 88.6867 21.0502C88.6867 22.2853 88.1587 23.0046 87.2321 23.0046Z" fill="#090909"/>
<path d="M92.9788 23.041C92.396 23.041 91.9725 22.744 91.9725 22.2332C91.9725 21.7329 92.3113 21.4671 93.0585 21.415L94.3836 21.3264V21.8007C94.3836 22.5042 93.7858 23.041 92.9788 23.041ZM92.7048 23.9844C93.4172 23.9844 94.01 23.6612 94.3338 23.0932H94.4185V23.8906H95.4497V20.013C95.4497 18.8143 94.6825 18.1055 93.3226 18.1055C92.0921 18.1055 91.2154 18.7309 91.1058 19.7055H92.1419C92.2615 19.3042 92.6749 19.0749 93.2727 19.0749C94.005 19.0749 94.3836 19.4137 94.3836 20.013V20.5029L92.9141 20.5915C91.6238 20.6749 90.8965 21.2638 90.8965 22.2853C90.8965 23.3225 91.6587 23.9844 92.7048 23.9844Z" fill="#090909"/>
<path d="M99.0842 23.9844C99.8315 23.9844 100.464 23.6143 100.788 22.9941H100.873V23.8906H101.899V16H100.828V19.1166H100.748C100.454 18.4912 99.8265 18.1212 99.0842 18.1212C97.7143 18.1212 96.8326 19.2573 96.8326 21.0502C96.8326 22.8482 97.7043 23.9844 99.0842 23.9844ZM99.3881 19.127C100.285 19.127 100.848 19.8723 100.848 21.0554C100.848 22.2436 100.29 22.9785 99.3881 22.9785C98.4815 22.9785 97.9385 22.2541 97.9385 21.0502C97.9385 19.8567 98.4865 19.127 99.3881 19.127Z" fill="#090909"/>
<path d="M108.844 24C110.428 24 111.4 22.8899 111.4 21.0502C111.4 19.2208 110.423 18.1055 108.844 18.1055C107.26 18.1055 106.284 19.2208 106.284 21.0502C106.284 22.8899 107.255 24 108.844 24ZM108.844 23.0046C107.913 23.0046 107.39 22.2906 107.39 21.0502C107.39 19.8202 107.913 19.101 108.844 19.101C109.771 19.101 110.299 19.8202 110.299 21.0502C110.299 22.2853 109.771 23.0046 108.844 23.0046Z" fill="#090909"/>
<path d="M112.817 23.8906H113.888V20.5707C113.888 19.6847 114.392 19.1322 115.184 19.1322C115.976 19.1322 116.354 19.5857 116.354 20.4977V23.8906H117.425V20.2163C117.425 18.8664 116.758 18.1055 115.547 18.1055C114.73 18.1055 114.192 18.486 113.928 19.1166H113.849V18.215H112.817V23.8906Z" fill="#090909"/>
<path d="M122.358 16.8026V18.241H121.496V19.1844H122.358V22.3896C122.358 23.484 122.831 23.9218 124.022 23.9218C124.231 23.9218 124.43 23.8958 124.605 23.8645V22.9316C124.455 22.9472 124.361 22.9577 124.196 22.9577C123.663 22.9577 123.429 22.6971 123.429 22.1029V19.1844H124.605V18.241H123.429V16.8026H122.358Z" fill="#090909"/>
<path d="M126.043 23.8906H127.114V20.5759C127.114 19.716 127.602 19.1375 128.479 19.1375C129.236 19.1375 129.639 19.5961 129.639 20.5029V23.8906H130.71V20.2267C130.71 18.8769 129.998 18.1107 128.842 18.1107C128.025 18.1107 127.452 18.4912 127.188 19.127H127.104V16H126.043V23.8906Z" fill="#090909"/>
<path d="M134.574 19.0593C135.366 19.0593 135.884 19.6378 135.909 20.529H133.169C133.229 19.643 133.782 19.0593 134.574 19.0593ZM135.904 22.3583C135.705 22.8013 135.261 23.0463 134.614 23.0463C133.757 23.0463 133.204 22.4156 133.169 21.4202V21.3577H137V20.9668C137 19.1844 136.088 18.1055 134.579 18.1055C133.05 18.1055 132.078 19.2573 132.078 21.071C132.078 22.8847 133.03 24 134.584 24C135.824 24 136.691 23.3746 136.935 22.3583H135.904Z" fill="#090909"/>
</svg>
